<?xml version="1.0" encoding="UTF-8" standalone="no"?>
<!-- Created with Inkscape (http://www.inkscape.org/) -->

<svg
   xmlns:dc="http://purl.org/dc/elements/1.1/"
   xmlns:cc="http://creativecommons.org/ns#"
   xmlns:rdf="http://www.w3.org/1999/02/22-rdf-syntax-ns#"
   xmlns:svg="http://www.w3.org/2000/svg"
   xmlns="http://www.w3.org/2000/svg"
   xmlns:sodipodi="http://sodipodi.sourceforge.net/DTD/sodipodi-0.dtd"
   xmlns:inkscape="http://www.inkscape.org/namespaces/inkscape"
   width="1052.3622"
   height="744.09448"
   viewBox="0 0 1052.3622 744.09449"
   id="svg2"
   version="1.1"
   inkscape:version="0.91 r13725"
   sodipodi:docname="lightning-bolt.svg">
  <defs
     id="defs4" />
  <sodipodi:namedview
     id="base"
     pagecolor="#ffffff"
     bordercolor="#666666"
     borderopacity="1.0"
     inkscape:pageopacity="0.0"
     inkscape:pageshadow="2"
     inkscape:zoom="0.5"
     inkscape:cx="174.19835"
     inkscape:cy="331.55744"
     inkscape:document-units="px"
     inkscape:current-layer="layer1"
     showgrid="false"
     inkscape:window-width="1366"
     inkscape:window-height="715"
     inkscape:window-x="-8"
     inkscape:window-y="-8"
     inkscape:window-maximized="1"
     showborder="true"
     inkscape:object-nodes="false"
     units="px" />
  <metadata
     id="metadata7">
    <rdf:RDF>
      <cc:Work
         rdf:about="">
        <dc:format>image/svg+xml</dc:format>
        <dc:type
           rdf:resource="http://purl.org/dc/dcmitype/StillImage" />
        <dc:title></dc:title>
      </cc:Work>
    </rdf:RDF>
  </metadata>
  <g
     inkscape:label="Layer 1"
     inkscape:groupmode="layer"
     id="layer1"
     transform="translate(0,-308.26767)">
    <path
       style="opacity:1;fill:#87decd;fill-opacity:1;stroke:none;stroke-width:25;stroke-linecap:round;stroke-linejoin:round;stroke-miterlimit:4;stroke-dasharray:none;stroke-opacity:1"
       d="m 622.62091,423.13976 c 0,0 -8.18609,31.20892 -13.80398,52.6377 7.74945,-29.53062 13.80567,-52.63867 13.80567,-52.63867 l -0.001,0.001 z m 0,0 -84.64191,96.09123 -135.02755,153.29339 99.57126,-151.86173 a 161.54163,161.54163 0 0 0 -57.11272,19.75364 161.54163,161.54163 0 0 0 -59.12812,220.66914 161.54163,161.54163 0 0 0 0.41919,0.67136 l 13.82093,-8.02238 91.7817,-53.28335 -82.88135,47.85156 213.19857,-325.16286 z m -28.33799,107.96795 c -1.1659,4.43193 -2.34387,8.8931 -3.52845,13.39245 0.83391,-3.16823 1.65632,-6.27384 2.48905,-9.43879 0.11627,-0.44165 0.2344,-0.88639 0.3495,-1.32756 0.26138,-0.99479 0.4289,-1.63543 0.68941,-2.62623 z m 18.90433,13.16515 c -9.66754,36.53236 -18.86734,71.19825 -26.26175,98.79457 -0.1291,0.48187 -0.30823,0.97029 -0.51344,1.44662 l 79.19566,-45.72363 a 161.54163,161.54163 0 0 0 -52.42047,-54.51756 z m -36.70015,54.34363 c -1.36849,5.17451 -2.67739,10.11849 -3.99803,15.10247 0.88582,-3.34496 1.72024,-6.48998 2.62031,-9.89118 0.25235,-0.95338 0.4918,-1.85474 0.74577,-2.81416 0.0323,-0.1221 0.0675,-0.25571 0.10019,-0.37778 0.17499,-0.66082 0.35741,-1.35706 0.53273,-2.01909 z m 89.17283,0.25655 -6.85755,3.98176 -98.74507,57.32398 82.87965,-47.85059 -213.19858,325.16285 84.64192,-96.09123 135.03334,-153.29898 -99.57439,151.86803 a 161.54163,161.54163 0 0 0 57.11272,-19.75364 161.54163,161.54163 0 0 0 59.12751,-220.67072 161.54163,161.54163 0 0 0 -0.41919,-0.67137 z m -235.92155,338.618 c 0,0 7.62295,-29.0539 12.076,-46.04471 -6.89981,26.29439 -12.076,46.04471 -12.076,46.04471 z M 386.75424,761.8411 a 161.54163,161.54163 0 0 0 52.42314,54.51828 c 9.6674,-36.5311 18.86681,-71.19627 26.26103,-98.7919 0.12955,-0.48349 0.30532,-0.97217 0.51149,-1.45002 l -79.19566,45.72364 z"
       id="path5246"
       inkscape:connector-curvature="0" />
  </g>
</svg>
