<?xml version="1.0" encoding="UTF-8" standalone="no"?>
<!-- Created with Inkscape (http://www.inkscape.org/) -->

<svg
   xmlns:dc="http://purl.org/dc/elements/1.1/"
   xmlns:cc="http://creativecommons.org/ns#"
   xmlns:rdf="http://www.w3.org/1999/02/22-rdf-syntax-ns#"
   xmlns:svg="http://www.w3.org/2000/svg"
   xmlns="http://www.w3.org/2000/svg"
   xmlns:sodipodi="http://sodipodi.sourceforge.net/DTD/sodipodi-0.dtd"
   xmlns:inkscape="http://www.inkscape.org/namespaces/inkscape"
   width="210mm"
   height="297mm"
   viewBox="0 0 744.09448819 1052.3622047"
   id="svg2"
   version="1.1"
   inkscape:version="0.91 r13725"
   sodipodi:docname="doenut.svg">
  <defs
     id="defs4" />
  <sodipodi:namedview
     id="base"
     pagecolor="#ffffff"
     bordercolor="#666666"
     borderopacity="1.0"
     inkscape:pageopacity="0.0"
     inkscape:pageshadow="2"
     inkscape:zoom="0.35355339"
     inkscape:cx="-106.05024"
     inkscape:cy="511.27822"
     inkscape:document-units="px"
     inkscape:current-layer="layer1"
     showgrid="false"
     showborder="true"
     inkscape:window-width="1366"
     inkscape:window-height="715"
     inkscape:window-x="-8"
     inkscape:window-y="-8"
     inkscape:window-maximized="1" />
  <metadata
     id="metadata7">
    <rdf:RDF>
      <cc:Work
         rdf:about="">
        <dc:format>image/svg+xml</dc:format>
        <dc:type
           rdf:resource="http://purl.org/dc/dcmitype/StillImage" />
        <dc:title></dc:title>
      </cc:Work>
    </rdf:RDF>
  </metadata>
  <g
     inkscape:label="Layer 1"
     inkscape:groupmode="layer"
     id="layer1">
    <g
       id="g4386"
       transform="matrix(1.164348,0,0,1.164348,363.16113,11.092914)">
      <rect
         y="326.36221"
         x="-238"
         height="339"
         width="627"
         id="rect4229"
         style="opacity:0.41129031;fill:none;fill-opacity:1;stroke:none;stroke-width:20;stroke-linecap:square;stroke-linejoin:bevel;stroke-miterlimit:4;stroke-dasharray:none;stroke-opacity:1" />
      <path
         id="path4234"
         d="M -49.119141,195.75 A 250,250 0 0 0 -260,442.36133 a 250,250 0 0 0 250,250 250,250 0 0 0 250,-250 250,250 0 0 0 -71.58984,-174.79492 40.738102,42.955128 22.542997 0 1 -45.65821,10.84375 40.738102,42.955128 22.542997 0 1 -19.03515,-16.9668 67.286532,70.948362 22.542997 0 1 -64.619144,8.37109 A 67.286532,70.948362 22.542997 0 1 -0.859375,216.41211 40.738102,42.955128 22.542997 0 1 -28.59375,215.58789 40.738102,42.955128 22.542997 0 1 -49.119141,195.75 Z M -10,354.86133 a 87.5,87.5 0 0 1 87.5,87.5 87.5,87.5 0 0 1 -87.5,87.5 87.5,87.5 0 0 1 -87.5,-87.5 87.5,87.5 0 0 1 87.5,-87.5 z"
         style="opacity:1;fill:#ff9955;fill-opacity:1;stroke:none;stroke-width:20;stroke-linecap:square;stroke-linejoin:bevel;stroke-miterlimit:4;stroke-dasharray:none;stroke-opacity:1"
         inkscape:connector-curvature="0" />
      <path
         id="path4267"
         d="m -54.087891,173.44336 c -84.934309,14.00804 -162.085799,69.65738 -199.865229,147.74219 -18.11834,36.22985 -27.81865,70.71981 -28.23633,111.69531 a 12.50125,12.50125 0 0 0 0,0.12695 c 0,16.07534 1.79934,32.79017 7.17187,47.00391 2.68627,7.10687 6.28921,13.72376 11.82813,19.05664 5.53891,5.33287 13.50807,9.04883 21.98633,9.04883 7.86456,0 14.78965,-5.46568 18.10937,-10.69141 3.31972,-5.22573 4.94324,-10.70999 6.37695,-16.6914 2.86744,-11.96286 4.42095,-26.14937 6.85352,-39.88282 2.43256,-13.73345 5.86497,-26.83693 10.62305,-35.08398 4.75807,-8.24705 8.63409,-11.54297 17.70703,-11.54297 11.33231,0 16.35785,3.67021 21.4414,10.90039 5.08355,7.23018 8.76974,18.73415 11.41407,31.08984 2.64432,12.3557 4.31089,25.26432 7.48437,36.45704 1.58674,5.59633 3.44603,10.89224 7.17774,15.85546 3.73168,4.96322 10.77785,9.44727 18.15234,9.44727 8.43835,0 16.297685,-3.417 21.898436,-8.38867 5.600752,-4.97168 9.294601,-11.16735 12,-17.59766 5.336581,-12.68421 7.032367,-26.70306 7.078125,-38.48047 0.959761,-23.94045 14.038484,-40.20142 37.445313,-49.99023 a 12.50125,12.50125 0 0 0 0.359375,-0.15625 c 9.013343,-4.10559 18.938038,-6.14568 29.0253904,-6.02149 a 12.50125,12.50125 0 0 0 0.1132812,0 c 32.2318044,0.10783 62.6222604,30.89012 63.1992184,62.89258 0.01004,17.43779 1.20326,36.40161 6.029297,52.64453 2.423285,8.15602 5.737544,15.76826 11.232422,22.11328 5.494879,6.34503 13.932629,11.14472 23.253906,11.49024 4.227069,0.15669 8.757646,-1.46696 11.806636,-3.82422 3.04901,-2.35726 4.89736,-5.09374 6.31055,-7.74609 2.82638,-5.30472 4.16847,-10.78544 5.43164,-16.94141 2.52635,-12.31194 4.10581,-27.27537 6.77344,-41.83203 2.66763,-14.55667 6.55897,-28.52271 12,-37.5 5.44103,-8.9773 10.41008,-12.97266 20.79687,-12.97266 9.30128,0 13.49492,3.50727 18.51368,12.09961 5.01876,8.59235 8.68498,22.11983 11.35937,36.26953 2.67439,14.1497 4.46997,28.75215 7.60352,41.02344 1.56677,6.13564 3.3367,11.75076 6.80078,17.0293 3.46408,5.27853 10.44244,10.67383 18.37891,10.67383 9.41543,0 18.10033,-4.61055 23.70117,-10.85938 5.60084,-6.24883 8.92318,-13.77303 11.33984,-21.74219 4.83332,-15.93831 5.93945,-34.28006 5.93945,-50.15039 a 12.50125,12.50125 0 0 0 0,-0.11914 c -0.12391,-12.92941 -1.21785,-25.87931 -3.33007,-38.72461 -8.96452,-58.85202 -37.773,-114.20693 -80.53907,-155.40234 a 40.738102,45.172154 22.542997 0 1 -3.29101,12.16016 40.738102,45.172154 22.542997 0 1 -54.94531,26.10351 40.738102,45.172154 22.542997 0 1 -18.86915,-17.36719 67.286532,74.610192 22.542997 0 1 -65.263668,9.91992 67.286532,74.610192 22.542997 0 1 -39.2832026,-55.02343 40.738102,45.172154 22.542997 0 1 -27.9296874,-0.35352 40.738102,45.172154 22.542997 0 1 -23.164063,-47.75781 z"
         style="color:#000000;font-style:normal;font-variant:normal;font-weight:normal;font-stretch:normal;font-size:medium;line-height:normal;font-family:sans-serif;text-indent:0;text-align:start;text-decoration:none;text-decoration-line:none;text-decoration-style:solid;text-decoration-color:#000000;letter-spacing:normal;word-spacing:normal;text-transform:none;direction:ltr;block-progression:tb;writing-mode:lr-tb;baseline-shift:baseline;text-anchor:start;white-space:normal;clip-rule:nonzero;display:inline;overflow:visible;visibility:visible;opacity:1;isolation:auto;mix-blend-mode:normal;color-interpolation:sRGB;color-interpolation-filters:linearRGB;solid-color:#000000;solid-opacity:1;fill:#5f4848;fill-opacity:1;fill-rule:nonzero;stroke:none;stroke-width:25;stroke-linecap:round;stroke-linejoin:round;stroke-miterlimit:4;stroke-dasharray:none;stroke-dashoffset:0;stroke-opacity:1;color-rendering:auto;image-rendering:auto;shape-rendering:auto;text-rendering:auto;enable-background:accumulate"
         inkscape:connector-curvature="0" />
      <path
         id="path4241"
         d="m -59.066406,187.07422 c -78.115614,15.27161 -148.854904,67.60664 -183.669924,139.62305 -17.54527,35.06176 -26.55395,67.15113 -26.95312,106.31054 0,30.08012 7.47392,62.60938 28.48633,62.60938 25.09278,0 5.76966,-113.89258 59.66992,-113.89258 59.7896,0 38.5279,103.75 65.66992,103.75 21.687339,0 28.486327,-31.40258 28.486327,-52.4668 1.14927,-28.6676 18.297895,-49.8072 45.113281,-61.02148 10.738906,-4.89158 22.487685,-7.29268 34.3613282,-7.14649 39.7013718,0.13282 74.9471788,35.83758 75.6562498,75.16797 0,33.70966 5.21045,73.11985 28.480469,73.98242 22.088135,0.81876 3.866245,-120.82617 62.656245,-120.82617 54.95987,0 36.56706,117.09571 62.65626,117.09571 23.56949,0 28.48046,-39.85771 28.48046,-70.25196 -0.11819,-12.33223 -1.15991,-24.66813 -3.17382,-36.89062 -8.19671,-53.91465 -34.03829,-104.93179 -72.24414,-143.72461 a 40.738102,47.943437 22.542997 0 1 -1.09376,2.98633 40.738102,47.943437 22.542997 0 1 -1.14843,2.54882 40.738102,50.991848 22.542997 0 1 -0.88672,2.35547 40.738102,50.991848 22.542997 0 1 -57.17383,31.47657 40.738102,50.991848 22.542997 0 1 -18.437499,-18.41211 67.286532,84.222501 22.542997 0 1 -66.951172,13.98632 67.286532,84.222501 22.542997 0 1 -37.5156252,-59.27734 40.738102,50.991848 22.542997 0 1 -28.4433598,0.88086 40.738102,50.991848 22.542997 0 1 -22.02539,-48.86328 z"
         style="opacity:1;fill:#483e37;fill-opacity:1;stroke:none;stroke-width:20;stroke-linecap:square;stroke-linejoin:bevel;stroke-miterlimit:4;stroke-dasharray:none;stroke-opacity:1"
         inkscape:connector-curvature="0" />
      <path
         id="path4272"
         d="m -181.5332,381.72461 c -15.58878,0 -25.04543,9.53543 -31.23047,23.07812 -13.34419,73.29091 15.7509,153.94605 75.38672,199.58008 61.803188,48.78263 152.338157,58.42415 222.048825,21.04688 C 152.04183,590.79406 197.82455,516.7927 195.96094,440.9082 c -0.007,-4.03385 -0.14792,-8.06343 -0.40625,-12.08398 -6.23798,-19.92755 -16.5217,-35.66016 -36.66407,-35.66016 -19.9881,0 -31.06852,14.06656 -37.86328,32.59571 1.03968,7.92644 1.28614,15.98808 0.63086,24.08984 -2.89312,68.79296 -67.930357,128.79373 -136.998044,124.32031 -64.715549,-2.2386 -123.781236,-58.27119 -126.322266,-123.55273 -0.64663,-10.15908 0.0269,-20.34047 1.86719,-30.31836 -6.15799,-20.81622 -17.00794,-38.57422 -41.73828,-38.57422 z"
         style="opacity:0.64499996;fill:#ececec;fill-opacity:1;stroke:none;stroke-width:20;stroke-linecap:square;stroke-linejoin:bevel;stroke-miterlimit:4;stroke-dasharray:none;stroke-opacity:1"
         inkscape:connector-curvature="0" />
      <path
         id="path4322"
         d="m -46.611328,239.52148 c -74.305912,13.74424 -140.121802,70.8811 -161.117192,144.00977 19.03582,-17.08695 52.99852,-10.93334 65.43555,11.45313 2.36867,3.52728 4.32295,7.19887 5.98242,10.9746 13.29974,-43.92019 49.138202,-81.38461 94.589847,-91.25 11.501369,-2.78165 23.346287,-4.07254 35.173828,-4.0371 58.247418,0.17088 110.868165,45.7332 124.908205,101.19921 6.77505,-13.30145 18.8244,-24.53877 34.14648,-26.27148 15.28544,-2.67634 31.35398,4.45431 39.69141,17.49219 -6.62316,-33.63224 -21.7744,-65.58234 -43.47656,-92.05664 a 41.156459,55.613236 15.820864 0 1 -34.41602,4.43945 41.156459,55.613236 15.820864 0 1 -18.437499,-20.28906 67.977525,91.855581 15.820865 0 1 -66.951172,15.41211 67.977525,91.855581 15.820865 0 1 -37.5156252,-65.31446 41.156459,55.613236 15.820864 0 1 -28.4433598,0.97071 41.156459,55.613236 15.820864 0 1 -9.570312,-6.73243 z"
         style="opacity:0.64499996;fill:#ececec;fill-opacity:1;stroke:none;stroke-width:20;stroke-linecap:square;stroke-linejoin:bevel;stroke-miterlimit:4;stroke-dasharray:none;stroke-opacity:1"
         inkscape:connector-curvature="0" />
      <rect
         transform="matrix(0.98758638,0.1570769,-0.1570769,0.98758638,0,0)"
         ry="6.9999962"
         rx="6.2374845"
         y="369.91855"
         x="-151.36569"
         height="13.999992"
         width="49.639977"
         id="rect4171"
         style="opacity:1;fill:#ffcc00;fill-opacity:1;stroke:none;stroke-width:25;stroke-linecap:round;stroke-linejoin:round;stroke-miterlimit:4;stroke-dasharray:none;stroke-opacity:1" />
      <rect
         transform="matrix(-0.88527168,0.46507424,-0.46507424,-0.88527168,0,0)"
         ry="6.9999962"
         rx="6.2374845"
         y="-220.36507"
         x="236.37733"
         height="13.999992"
         width="49.639977"
         id="rect4171-0-5"
         style="opacity:1;fill:#ff00ff;fill-opacity:1;stroke:none;stroke-width:25;stroke-linecap:round;stroke-linejoin:round;stroke-miterlimit:4;stroke-dasharray:none;stroke-opacity:1" />
      <rect
         transform="matrix(-0.88527168,0.46507424,-0.46507424,-0.88527168,0,0)"
         ry="6.9999962"
         rx="6.2374845"
         y="-152.03191"
         x="164.33167"
         height="13.999992"
         width="49.639977"
         id="rect4171-0-5-3"
         style="opacity:1;fill:#ffcc00;fill-opacity:1;stroke:none;stroke-width:25;stroke-linecap:round;stroke-linejoin:round;stroke-miterlimit:4;stroke-dasharray:none;stroke-opacity:1" />
      <rect
         transform="matrix(0.66477118,-0.74704704,0.74704704,0.66477118,0,0)"
         ry="6.9999962"
         rx="6.2374845"
         y="332.18216"
         x="-237.50226"
         height="13.999992"
         width="49.639977"
         id="rect4171-0-5-3-5"
         style="opacity:1;fill:#ffcc00;fill-opacity:1;stroke:none;stroke-width:25;stroke-linecap:round;stroke-linejoin:round;stroke-miterlimit:4;stroke-dasharray:none;stroke-opacity:1" />
      <rect
         transform="matrix(0.66477118,-0.74704704,0.74704704,0.66477118,0,0)"
         ry="6.9999962"
         rx="6.2374845"
         y="336.29599"
         x="-166.91135"
         height="13.999992"
         width="49.639977"
         id="rect4171-0-5-3-5-8"
         style="opacity:1;fill:#800000;fill-opacity:1;stroke:none;stroke-width:25;stroke-linecap:round;stroke-linejoin:round;stroke-miterlimit:4;stroke-dasharray:none;stroke-opacity:1" />
      <rect
         transform="matrix(0.66477118,-0.74704704,0.74704704,0.66477118,0,0)"
         ry="6.9999962"
         rx="6.2374845"
         y="219.44067"
         x="-300.3461"
         height="13.999992"
         width="49.639977"
         id="rect4171-0-5-3-5-9"
         style="opacity:1;fill:#ffcc00;fill-opacity:1;stroke:none;stroke-width:25;stroke-linecap:round;stroke-linejoin:round;stroke-miterlimit:4;stroke-dasharray:none;stroke-opacity:1" />
      <rect
         transform="matrix(0.66477118,-0.74704704,0.74704704,0.66477118,0,0)"
         ry="6.9999962"
         rx="6.2374845"
         y="135.04755"
         x="-265.67911"
         height="13.999992"
         width="49.639977"
         id="rect4171-0-5-3-5-2"
         style="opacity:1;fill:#000080;fill-opacity:1;stroke:none;stroke-width:25;stroke-linecap:round;stroke-linejoin:round;stroke-miterlimit:4;stroke-dasharray:none;stroke-opacity:1" />
      <rect
         transform="matrix(0.82103119,0.57088333,-0.57088333,0.82103119,0,0)"
         ry="6.9999962"
         rx="6.2374845"
         y="259.82416"
         x="219.17252"
         height="13.999992"
         width="49.639977"
         id="rect4171-0-5-3-5-6"
         style="opacity:1;fill:#008000;fill-opacity:1;stroke:none;stroke-width:25;stroke-linecap:round;stroke-linejoin:round;stroke-miterlimit:4;stroke-dasharray:none;stroke-opacity:1" />
      <rect
         transform="matrix(0.66477118,-0.74704704,0.74704704,0.66477118,0,0)"
         ry="6.9999962"
         rx="6.2374845"
         y="176.27649"
         x="-336.07919"
         height="13.999992"
         width="49.639977"
         id="rect4171-0-5-3-5-83"
         style="opacity:1;fill:#ff00ff;fill-opacity:1;stroke:none;stroke-width:25;stroke-linecap:round;stroke-linejoin:round;stroke-miterlimit:4;stroke-dasharray:none;stroke-opacity:1" />
      <rect
         transform="matrix(0.66477118,-0.74704704,0.74704704,0.66477118,0,0)"
         ry="6.9999962"
         rx="6.2374845"
         y="463.04364"
         x="-204.04663"
         height="13.999992"
         width="49.639977"
         id="rect4171-0-5-3-5-1"
         style="opacity:1;fill:#ffcc00;fill-opacity:1;stroke:none;stroke-width:25;stroke-linecap:round;stroke-linejoin:round;stroke-miterlimit:4;stroke-dasharray:none;stroke-opacity:1" />
    </g>
  </g>
</svg>
